<svg xmlns="http://www.w3.org/2000/svg" version="1.1" xmlns:xlink="http://www.w3.org/1999/xlink" xmlns:svgjs="http://svgjs.dev/svgjs" width="1000" height="1000" viewBox="0 0 1000 1000"><rect width="1000" height="1000" fill="#1f2d5a"></rect><g transform="matrix(0.7,0,0,0.7,149.57575757575756,438.813524635989)"><svg viewBox="0 0 396 69" data-background-color="#1f2d5a" preserveAspectRatio="xMidYMid meet" height="174" width="1000" xmlns="http://www.w3.org/2000/svg" xmlns:xlink="http://www.w3.org/1999/xlink"><g id="tight-bounds" transform="matrix(1,0,0,1,0.2400000000000091,0.16228899931661545)"><svg viewBox="0 0 395.52 68.67542200136678" height="68.67542200136678" width="395.52"><g><svg viewBox="0 0 534.0466346795604 92.72825142857144" height="68.67542200136678" width="395.52"><g transform="matrix(1,0,0,1,138.52663467956046,12.815554285714292)"><svg viewBox="0 0 395.52 67.09714285714286" height="67.09714285714286" width="395.52"><g id="textblocktransform"><svg viewBox="0 0 395.52 67.09714285714286" height="67.09714285714286" width="395.52" id="textblock"><g><svg viewBox="0 0 395.52 67.09714285714286" height="67.09714285714286" width="395.52"><g transform="matrix(1,0,0,1,0,0)"><svg width="395.52" viewBox="1.6500000953674316 -37.5 223.98001098632812 38" height="67.09714285714286" data-palette-color="#fbfbfb"><path d="M14.3 0.5L14.3 0.5Q10.15 0.5 7.34-1.19 4.53-2.88 3.09-5.74 1.65-8.6 1.65-12.1L1.65-12.1Q1.65-15.75 3.04-18.68 4.42-21.6 7.3-23.3 10.18-25 14.65-25L14.65-25Q16.57-25 18.29-24.61 20-24.23 21.35-23.55L21.35-23.55 20.65-19.6Q19.28-20.25 17.74-20.63 16.2-21 14.55-21L14.55-21Q10.5-21 8.38-18.7 6.25-16.4 6.25-12.3L6.25-12.3Q6.25-8.3 8.28-5.88 10.3-3.45 14.45-3.45L14.45-3.45Q16.15-3.45 17.71-3.85 19.28-4.25 20.7-4.95L20.7-4.95 21.3-1.35Q20.3-0.65 18.38-0.08 16.45 0.5 14.3 0.5ZM36.1 0.5L36.1 0.5Q32.25 0.5 29.54-1.21 26.82-2.93 25.39-5.81 23.95-8.7 23.95-12.25L23.95-12.25Q23.95-15.8 25.39-18.69 26.82-21.58 29.54-23.29 32.25-25 36.1-25L36.1-25Q39.92-25 42.65-23.29 45.37-21.58 46.81-18.69 48.25-15.8 48.25-12.25L48.25-12.25Q48.25-8.7 46.81-5.81 45.37-2.93 42.65-1.21 39.92 0.5 36.1 0.5ZM36.1-3.5L36.1-3.5Q39.75-3.5 41.7-5.81 43.65-8.13 43.65-12.25L43.65-12.25Q43.65-16.38 41.7-18.69 39.75-21 36.1-21L36.1-21Q32.47-21 30.51-18.69 28.55-16.38 28.55-12.25L28.55-12.25Q28.55-8.13 30.51-5.81 32.47-3.5 36.1-3.5ZM62.59 0.5L62.59 0.5Q59.47 0.5 56.95-1.2 54.42-2.9 52.93-5.78 51.45-8.65 51.45-12.2L51.45-12.2Q51.45-15.58 52.81-18.5 54.17-21.43 56.67-23.21 59.17-25 62.59-25L62.59-25Q65.05-25 67.33-23.94 69.62-22.88 71.05-20.4L71.05-20.4 70.09-19.75 70.09-37.5 74.59-37.5 74.59 0 70.59 0 69.75-5.2 70.89-4.4Q69.82-1.98 67.52-0.74 65.22 0.5 62.59 0.5ZM63.39-3.5L63.39-3.5Q65.09-3.5 66.76-4.38 68.42-5.25 69.51-7.16 70.59-9.08 70.59-12.2L70.59-12.2Q70.59-15.1 69.51-17.06 68.42-19.03 66.76-20.01 65.09-21 63.39-21L63.39-21Q61.09-21 59.45-19.85 57.8-18.7 56.92-16.71 56.05-14.73 56.05-12.2L56.05-12.2Q56.05-9.83 56.92-7.85 57.8-5.88 59.45-4.69 61.09-3.5 63.39-3.5ZM92.39 0.5L92.39 0.5Q88.07 0.5 85.12-1.28 82.17-3.05 80.66-5.99 79.14-8.93 79.14-12.45L79.14-12.45Q79.14-15.88 80.56-18.73 81.97-21.58 84.66-23.29 87.34-25 91.14-25L91.14-25Q94.19-25 96.58-23.79 98.97-22.58 100.33-20.26 101.69-17.95 101.69-14.65L101.69-14.65Q101.69-14.13 101.66-13.51 101.62-12.9 101.49-12.25L101.49-12.25 83.74-12.25Q84.07-8.85 85.37-6.95 86.67-5.05 88.64-4.28 90.62-3.5 92.94-3.5L92.94-3.5Q94.64-3.5 96.49-3.85 98.34-4.2 99.99-4.95L99.99-4.95 100.59-1.4Q99.17-0.78 97.12-0.14 95.07 0.5 92.39 0.5ZM84.14-15.35L84.14-15.35 97.04-15.35Q97.04-17.07 96.39-18.35 95.74-19.63 94.42-20.31 93.09-21 91.04-21L91.04-21Q88.04-21 86.43-19.51 84.82-18.03 84.14-15.35ZM122.29 0L117.49 0 117.49-24.5 121.19-24.5 121.74-20.45Q123.61-22.78 125.33-23.89 127.04-25 128.99-25L128.99-25Q129.61-25 130.14-24.85L130.14-24.85 129.69-19.9Q129.36-19.98 129-20.01 128.64-20.05 128.19-20.05L128.19-20.05Q126.24-20.05 124.6-19.19 122.96-18.32 122.29-17.3L122.29-17.3 122.29 0ZM143.34 0.5L143.34 0.5Q139.49 0.5 136.77-1.21 134.06-2.93 132.62-5.81 131.19-8.7 131.19-12.25L131.19-12.25Q131.19-15.8 132.62-18.69 134.06-21.58 136.77-23.29 139.49-25 143.34-25L143.34-25Q147.16-25 149.89-23.29 152.61-21.58 154.05-18.69 155.49-15.8 155.49-12.25L155.49-12.25Q155.49-8.7 154.05-5.81 152.61-2.93 149.89-1.21 147.16 0.5 143.34 0.5ZM143.34-3.5L143.34-3.5Q146.99-3.5 148.94-5.81 150.89-8.13 150.89-12.25L150.89-12.25Q150.89-16.38 148.94-18.69 146.99-21 143.34-21L143.34-21Q139.71-21 137.75-18.69 135.78-16.38 135.78-12.25L135.78-12.25Q135.78-8.13 137.75-5.81 139.71-3.5 143.34-3.5ZM170.83 0.5L170.83 0.5Q166.98 0.5 164.27-1.21 161.56-2.93 160.12-5.81 158.68-8.7 158.68-12.25L158.68-12.25Q158.68-15.8 160.12-18.69 161.56-21.58 164.27-23.29 166.98-25 170.83-25L170.83-25Q174.66-25 177.38-23.29 180.11-21.58 181.55-18.69 182.98-15.8 182.98-12.25L182.98-12.25Q182.98-8.7 181.55-5.81 180.11-2.93 177.38-1.21 174.66 0.5 170.83 0.5ZM170.83-3.5L170.83-3.5Q174.48-3.5 176.43-5.81 178.38-8.13 178.38-12.25L178.38-12.25Q178.38-16.38 176.43-18.69 174.48-21 170.83-21L170.83-21Q167.21-21 165.25-18.69 163.28-16.38 163.28-12.25L163.28-12.25Q163.28-8.13 165.25-5.81 167.21-3.5 170.83-3.5ZM192.13 0L187.63 0 187.63-24.5 191.13-24.5 192.03-19.8 190.33-20.6Q192.63-23.08 194.81-24.04 196.98-25 199.38-25L199.38-25Q201.18-25 202.84-24.41 204.51-23.83 205.84-22.36 207.18-20.9 207.98-18.3L207.98-18.3 206.73-18.85Q207.83-21.7 210.11-23.35 212.38-25 216.23-25L216.23-25Q219.31-25 221.41-23.86 223.51-22.73 224.57-20.39 225.63-18.05 225.63-14.45L225.63-14.45 225.63 0 221.13 0 221.13-14.4Q221.13-17.85 219.78-19.43 218.43-21 215.38-21L215.38-21Q213.23-21 211.93-20.34 210.63-19.68 209.97-18.63 209.31-17.57 209.09-16.4 208.88-15.23 208.88-14.2L208.88-14.2 208.88 0 204.38 0 204.38-13.5Q204.38-16.5 203.66-18.13 202.93-19.75 201.63-20.38 200.33-21 198.63-21L198.63-21Q196.16-21 194.21-19.91 192.26-18.82 191.58-16.45L191.58-16.45 192.13-18.9 192.13 0Z" opacity="1" transform="matrix(1,0,0,1,0,0)" fill="#fbfbfb" class="undefined-text-0" data-fill-palette-color="primary" id="text-0"></path></svg></g></svg></g></svg></g></svg></g><g><svg viewBox="0 0 122.6866095824176 92.72825142857144" height="92.72825142857144" width="122.6866095824176"><g><svg xmlns="http://www.w3.org/2000/svg" xmlns:xlink="http://www.w3.org/1999/xlink" version="1.1" x="0" y="0" viewBox="6.5 18 86 65" enable-background="new 0 0 100 100" xml:space="preserve" height="92.72825142857144" width="122.6866095824176" class="icon-icon-0" data-fill-palette-color="accent" id="icon-0"><g fill="#2f76db" data-fill-palette-color="accent"><path d="M35.845 61.275l-10.72-5.09c-1.209-0.572-1.94-1.463-1.94-2.703v-0.318c0-1.24 0.731-2.131 1.94-2.704l10.72-5.089c0.381-0.191 0.731-0.318 1.177-0.318 1.018-0.031 1.94 0.859 1.94 2.004 0 0.922-0.509 1.559-1.336 1.94l-9.606 4.294 9.606 4.295c0.827 0.381 1.336 1.113 1.336 2.004 0 1.177-0.922 2.004-2.1 1.972C36.513 61.562 36.163 61.435 35.845 61.275z" fill="#2f76db" data-fill-palette-color="accent"></path><path d="M41.889 66.047l12.438-25.988c0.35-0.731 0.922-1.113 1.686-1.113 1.018 0 1.876 0.859 1.876 1.813 0 0.35-0.127 0.7-0.222 0.923L45.229 67.669c-0.35 0.731-0.922 1.113-1.686 1.113-1.018 0-1.876-0.858-1.876-1.813C41.667 66.619 41.793 66.27 41.889 66.047z" fill="#2f76db" data-fill-palette-color="accent"></path><path d="M64.155 45.371l10.72 5.089c1.208 0.573 1.94 1.464 1.94 2.704v0.318c0 1.24-0.731 2.131-1.94 2.703l-10.72 5.09c-0.381 0.191-0.731 0.318-1.177 0.318-1.018 0.031-1.94-0.859-1.94-2.004 0-0.923 0.509-1.559 1.336-1.94l9.606-4.295-9.606-4.294c-0.827-0.381-1.336-1.113-1.336-2.004 0-1.177 0.923-2.004 2.1-1.973C63.487 45.084 63.837 45.212 64.155 45.371z" fill="#2f76db" data-fill-palette-color="accent"></path></g><path d="M92.5 21c0-1.657-1.343-3-3-3h-80c-1.657 0-3 1.343-3 3v59c0 1.657 1.343 3 3 3h80c1.657 0 3-1.343 3-3V21zM26 20.833c1.196 0 2.167 0.97 2.167 2.167s-0.97 2.167-2.167 2.167-2.167-0.97-2.167-2.167S24.804 20.833 26 20.833zM20 20.833c1.196 0 2.167 0.97 2.167 2.167s-0.97 2.167-2.167 2.167-2.167-0.97-2.167-2.167S18.804 20.833 20 20.833zM14 20.833c1.196 0 2.167 0.97 2.167 2.167s-0.97 2.167-2.167 2.167-2.167-0.97-2.167-2.167S12.804 20.833 14 20.833zM88.5 79h-78V29h78V79z" fill="#2f76db" data-fill-palette-color="accent"></path></svg></g></svg></g></svg></g><defs></defs></svg><rect width="395.52" height="68.67542200136678" fill="none" stroke="none" visibility="hidden"></rect></g></svg></g></svg>